<?xml version="1.0" encoding="UTF-8" standalone="no"?><!DOCTYPE svg PUBLIC "-//W3C//DTD SVG 1.1//EN" "http://www.w3.org/Graphics/SVG/1.1/DTD/svg11.dtd"><svg width="100%" height="100%" viewBox="0 0 1000 1000" version="1.1" xmlns="http://www.w3.org/2000/svg" xmlns:xlink="http://www.w3.org/1999/xlink" xml:space="preserve" xmlns:serif="http://www.serif.com/" style="fill-rule:evenodd;clip-rule:evenodd;stroke-linejoin:round;stroke-miterlimit:2;"><path d="M1000,200l0,600c0,110.383 -89.617,200 -200,200l-600,0c-110.383,0 -200,-89.617 -200,-200l-0,-600c0,-110.383 89.617,-200 200,-200l600,-0c110.383,0 200,89.617 200,200Z" style="fill:#00c4c2;"/><path d="M527.227,136.977l0,46.322c58.229,4.066 111.376,21.092 152.252,47.52c46.903,30.312 80.7,75.436 80.7,129.345c0,15.029 -12.198,27.227 -27.227,27.227c-15.029,0 -27.227,-12.198 -27.227,-27.227c0,-29.26 -18.369,-59.427 -55.797,-83.604c-31.402,-20.293 -74.093,-34.705 -122.702,-38.662l0,224.494c73.44,2.142 133.411,13.323 176.865,38.19c24.903,14.231 44.652,33.071 57.975,57.176c13.25,23.996 19.277,51.586 19.277,82.08c0,65.852 -35.903,111.775 -88.977,139.728c-45.015,23.705 -103.026,35.032 -165.139,37.537l0,45.922c0,15.029 -12.198,27.227 -27.227,27.227c-15.029,0 -27.227,-12.198 -27.227,-27.227l0,-46.177c-63.638,-3.775 -121.758,-20.692 -166.337,-47.12c-50.279,-29.768 -87.779,-74.819 -87.779,-129.89c0,-15.029 12.198,-27.227 27.227,-27.227c15.029,0 27.227,12.198 27.227,27.227c0,28.098 19.385,58.338 61.097,83.06c35.358,20.946 83.641,35.685 138.566,39.388l0,-246.202c-72.568,-2.251 -127.857,-13.867 -166.628,-36.738c-22.253,-13.141 -39.243,-30.131 -50.497,-51.041c-11.181,-20.765 -15.828,-43.853 -15.828,-68.139c0,-53.909 33.797,-99.033 80.7,-129.345c40.876,-26.428 94.023,-43.454 152.252,-47.52l0,-46.322c0,-15.029 12.198,-27.227 27.227,-27.227c15.029,0 27.227,12.198 27.227,27.227Zm0,379.904l0,245.73c56.45,-2.469 104.841,-12.851 139.8,-31.256c38.88,-20.475 59.863,-49.807 59.863,-91.518c0,-23.306 -4.574,-41.421 -12.488,-55.76c-7.841,-14.194 -19.894,-26.283 -37.319,-36.23c-31.946,-18.26 -80.882,-28.824 -149.856,-30.966Zm-54.453,-278.983c-48.609,3.957 -91.3,18.369 -122.702,38.662c-37.428,24.177 -55.797,54.345 -55.797,83.604c0,17.316 3.304,31.147 9.33,42.365c5.99,11.109 15.428,21.201 30.24,29.913c27.154,16.046 71.261,26.864 138.929,29.151l0,-223.695Z" style="fill:#fff;fill-rule:nonzero;"/></svg>